<mxfile host="app.diagrams.net" agent="Mozilla/5.0 (Macintosh; Intel Mac OS X 10_15_7) AppleWebKit/537.36 (KHTML, like Gecko) Chrome/134.0.0.0 Safari/537.36" version="26.1.1">
  <diagram name="第 1 页" id="O6liCrvr6T_qjz66huat">
    <mxGraphModel dx="1817" dy="739" grid="1" gridSize="10" guides="1" tooltips="1" connect="1" arrows="1" fold="1" page="1" pageScale="1" pageWidth="827" pageHeight="1169" math="0" shadow="0">
      <root>
        <mxCell id="0" />
        <mxCell id="1" parent="0" />
        <mxCell id="ls6p_8hV20rsziK436bs-19" style="edgeStyle=orthogonalEdgeStyle;rounded=0;orthogonalLoop=1;jettySize=auto;html=1;entryX=0.5;entryY=0;entryDx=0;entryDy=0;" edge="1" parent="1" source="ls6p_8hV20rsziK436bs-1" target="ls6p_8hV20rsziK436bs-18">
          <mxGeometry relative="1" as="geometry" />
        </mxCell>
        <mxCell id="ls6p_8hV20rsziK436bs-1" value="" style="shape=cylinder3;whiteSpace=wrap;html=1;boundedLbl=1;backgroundOutline=1;size=15;rotation=90;" vertex="1" parent="1">
          <mxGeometry x="12.25" y="144.38" width="42.5" height="173.75" as="geometry" />
        </mxCell>
        <mxCell id="ls6p_8hV20rsziK436bs-2" value="1&lt;div&gt;100&lt;/div&gt;" style="rounded=0;whiteSpace=wrap;html=1;" vertex="1" parent="1">
          <mxGeometry x="55.5" y="216.26" width="30" height="30" as="geometry" />
        </mxCell>
        <mxCell id="ls6p_8hV20rsziK436bs-3" value="2&lt;br&gt;&lt;div&gt;101&lt;/div&gt;" style="rounded=0;whiteSpace=wrap;html=1;" vertex="1" parent="1">
          <mxGeometry x="25.5" y="216.26" width="30" height="30" as="geometry" />
        </mxCell>
        <mxCell id="ls6p_8hV20rsziK436bs-4" value="1&#39;&lt;br&gt;&lt;div&gt;102&lt;/div&gt;" style="rounded=0;whiteSpace=wrap;html=1;" vertex="1" parent="1">
          <mxGeometry x="-4.5" y="216.26" width="30" height="30" as="geometry" />
        </mxCell>
        <mxCell id="ls6p_8hV20rsziK436bs-5" value="1&#39;&lt;br&gt;&lt;div&gt;103&lt;/div&gt;" style="rounded=0;whiteSpace=wrap;html=1;" vertex="1" parent="1">
          <mxGeometry x="-34.5" y="216.26" width="30" height="30" as="geometry" />
        </mxCell>
        <mxCell id="ls6p_8hV20rsziK436bs-6" value="1&lt;div&gt;100&lt;/div&gt;" style="rounded=0;whiteSpace=wrap;html=1;" vertex="1" parent="1">
          <mxGeometry x="150" y="299" width="30" height="30" as="geometry" />
        </mxCell>
        <mxCell id="ls6p_8hV20rsziK436bs-7" value="2&lt;br&gt;&lt;div&gt;101&lt;/div&gt;" style="rounded=0;whiteSpace=wrap;html=1;" vertex="1" parent="1">
          <mxGeometry x="120" y="299" width="30" height="30" as="geometry" />
        </mxCell>
        <mxCell id="ls6p_8hV20rsziK436bs-17" value="" style="shape=cylinder3;whiteSpace=wrap;html=1;boundedLbl=1;backgroundOutline=1;size=15;" vertex="1" parent="1">
          <mxGeometry x="370" y="449" width="70" height="100" as="geometry" />
        </mxCell>
        <mxCell id="ls6p_8hV20rsziK436bs-25" style="edgeStyle=orthogonalEdgeStyle;rounded=0;orthogonalLoop=1;jettySize=auto;html=1;entryX=0.5;entryY=0;entryDx=0;entryDy=0;" edge="1" parent="1" source="ls6p_8hV20rsziK436bs-18" target="ls6p_8hV20rsziK436bs-22">
          <mxGeometry relative="1" as="geometry" />
        </mxCell>
        <mxCell id="ls6p_8hV20rsziK436bs-18" value="fetch record list" style="rounded=1;whiteSpace=wrap;html=1;" vertex="1" parent="1">
          <mxGeometry x="-16.629999999999995" y="299" width="100" height="40" as="geometry" />
        </mxCell>
        <mxCell id="ls6p_8hV20rsziK436bs-29" style="edgeStyle=orthogonalEdgeStyle;rounded=0;orthogonalLoop=1;jettySize=auto;html=1;entryX=0;entryY=0.5;entryDx=0;entryDy=0;" edge="1" parent="1" source="ls6p_8hV20rsziK436bs-22" target="ls6p_8hV20rsziK436bs-28">
          <mxGeometry relative="1" as="geometry" />
        </mxCell>
        <mxCell id="ls6p_8hV20rsziK436bs-22" value="retry" style="rounded=0;whiteSpace=wrap;html=1;verticalAlign=top;" vertex="1" parent="1">
          <mxGeometry x="-40" y="380" width="147" height="90" as="geometry" />
        </mxCell>
        <mxCell id="ls6p_8hV20rsziK436bs-23" value="listener" style="rounded=1;whiteSpace=wrap;html=1;" vertex="1" parent="1">
          <mxGeometry x="-16.5" y="409" width="100" height="40" as="geometry" />
        </mxCell>
        <mxCell id="ls6p_8hV20rsziK436bs-32" style="edgeStyle=orthogonalEdgeStyle;rounded=0;orthogonalLoop=1;jettySize=auto;html=1;" edge="1" parent="1" source="ls6p_8hV20rsziK436bs-26" target="ls6p_8hV20rsziK436bs-17">
          <mxGeometry relative="1" as="geometry" />
        </mxCell>
        <mxCell id="ls6p_8hV20rsziK436bs-41" style="edgeStyle=orthogonalEdgeStyle;rounded=0;orthogonalLoop=1;jettySize=auto;html=1;" edge="1" parent="1" source="ls6p_8hV20rsziK436bs-26" target="ls6p_8hV20rsziK436bs-35">
          <mxGeometry relative="1" as="geometry" />
        </mxCell>
        <mxCell id="ls6p_8hV20rsziK436bs-26" value="recovery" style="rounded=0;whiteSpace=wrap;html=1;verticalAlign=top;" vertex="1" parent="1">
          <mxGeometry x="126.5" y="510" width="171.5" height="160" as="geometry" />
        </mxCell>
        <mxCell id="ls6p_8hV20rsziK436bs-27" value="saveDB" style="rounded=1;whiteSpace=wrap;html=1;" vertex="1" parent="1">
          <mxGeometry x="157.07" y="580" width="109.87" height="35" as="geometry" />
        </mxCell>
        <mxCell id="ls6p_8hV20rsziK436bs-31" value="Y" style="edgeStyle=orthogonalEdgeStyle;rounded=0;orthogonalLoop=1;jettySize=auto;html=1;entryX=0.5;entryY=0;entryDx=0;entryDy=0;" edge="1" parent="1" source="ls6p_8hV20rsziK436bs-28" target="ls6p_8hV20rsziK436bs-26">
          <mxGeometry relative="1" as="geometry" />
        </mxCell>
        <mxCell id="ls6p_8hV20rsziK436bs-28" value="error" style="rhombus;whiteSpace=wrap;html=1;" vertex="1" parent="1">
          <mxGeometry x="180" y="392.5" width="64" height="65" as="geometry" />
        </mxCell>
        <mxCell id="ls6p_8hV20rsziK436bs-30" value="BatchListenerExeption" style="text;html=1;align=center;verticalAlign=middle;whiteSpace=wrap;rounded=0;" vertex="1" parent="1">
          <mxGeometry x="300" y="414" width="60" height="30" as="geometry" />
        </mxCell>
        <mxCell id="ls6p_8hV20rsziK436bs-33" value="1&lt;div&gt;100&lt;/div&gt;" style="rounded=0;whiteSpace=wrap;html=1;" vertex="1" parent="1">
          <mxGeometry x="390" y="479" width="30" height="30" as="geometry" />
        </mxCell>
        <mxCell id="ls6p_8hV20rsziK436bs-34" value="2&lt;br&gt;&lt;div&gt;101&lt;/div&gt;" style="rounded=0;whiteSpace=wrap;html=1;" vertex="1" parent="1">
          <mxGeometry x="390" y="509" width="30" height="30" as="geometry" />
        </mxCell>
        <mxCell id="ls6p_8hV20rsziK436bs-39" value="Y" style="edgeStyle=orthogonalEdgeStyle;rounded=0;orthogonalLoop=1;jettySize=auto;html=1;entryX=0;entryY=0.5;entryDx=0;entryDy=0;" edge="1" parent="1" source="ls6p_8hV20rsziK436bs-35" target="ls6p_8hV20rsziK436bs-37">
          <mxGeometry relative="1" as="geometry" />
        </mxCell>
        <mxCell id="ls6p_8hV20rsziK436bs-35" value="error" style="rhombus;whiteSpace=wrap;html=1;" vertex="1" parent="1">
          <mxGeometry x="180" y="728.75" width="64" height="65" as="geometry" />
        </mxCell>
        <mxCell id="ls6p_8hV20rsziK436bs-37" value="SeekAfterRecoverFailsOrInterrupted" style="rounded=0;whiteSpace=wrap;html=1;verticalAlign=top;" vertex="1" parent="1">
          <mxGeometry x="295" y="690" width="220" height="142.5" as="geometry" />
        </mxCell>
        <mxCell id="ls6p_8hV20rsziK436bs-38" value="CommonErrorHandler.&lt;div&gt;handleOtherException&lt;/div&gt;" style="rounded=1;whiteSpace=wrap;html=1;" vertex="1" parent="1">
          <mxGeometry x="330" y="772.5" width="140" height="40" as="geometry" />
        </mxCell>
        <mxCell id="ls6p_8hV20rsziK436bs-40" value="consumer.seek" style="rounded=1;whiteSpace=wrap;html=1;" vertex="1" parent="1">
          <mxGeometry x="325" y="715" width="140" height="40" as="geometry" />
        </mxCell>
        <mxCell id="ls6p_8hV20rsziK436bs-42" value="save redis" style="rounded=1;whiteSpace=wrap;html=1;" vertex="1" parent="1">
          <mxGeometry x="157.32" y="539" width="109.87" height="35" as="geometry" />
        </mxCell>
        <mxCell id="ls6p_8hV20rsziK436bs-43" value="MySQL" style="text;html=1;align=center;verticalAlign=middle;whiteSpace=wrap;rounded=0;" vertex="1" parent="1">
          <mxGeometry x="380" y="449" width="60" height="30" as="geometry" />
        </mxCell>
        <mxCell id="ls6p_8hV20rsziK436bs-48" value="" style="shape=cylinder3;whiteSpace=wrap;html=1;boundedLbl=1;backgroundOutline=1;size=15;" vertex="1" parent="1">
          <mxGeometry x="370" y="565" width="100" height="86" as="geometry" />
        </mxCell>
        <mxCell id="ls6p_8hV20rsziK436bs-51" value="Redis" style="text;html=1;align=center;verticalAlign=middle;whiteSpace=wrap;rounded=0;" vertex="1" parent="1">
          <mxGeometry x="380" y="565" width="70" height="30" as="geometry" />
        </mxCell>
        <mxCell id="ls6p_8hV20rsziK436bs-52" value="1 -&amp;gt; [100]" style="rounded=0;whiteSpace=wrap;html=1;" vertex="1" parent="1">
          <mxGeometry x="395" y="593.5" width="55" height="27.5" as="geometry" />
        </mxCell>
        <mxCell id="ls6p_8hV20rsziK436bs-54" style="edgeStyle=orthogonalEdgeStyle;rounded=0;orthogonalLoop=1;jettySize=auto;html=1;entryX=0;entryY=0.5;entryDx=0;entryDy=0;entryPerimeter=0;exitX=1;exitY=0.5;exitDx=0;exitDy=0;" edge="1" parent="1" source="ls6p_8hV20rsziK436bs-26" target="ls6p_8hV20rsziK436bs-48">
          <mxGeometry relative="1" as="geometry" />
        </mxCell>
        <mxCell id="ls6p_8hV20rsziK436bs-55" value="2 -&amp;gt; [101]" style="rounded=0;whiteSpace=wrap;html=1;" vertex="1" parent="1">
          <mxGeometry x="395" y="621" width="55" height="27.5" as="geometry" />
        </mxCell>
        <mxCell id="ls6p_8hV20rsziK436bs-56" value="remove redis msg" style="rounded=1;whiteSpace=wrap;html=1;" vertex="1" parent="1">
          <mxGeometry x="157.32" y="625" width="109.87" height="35" as="geometry" />
        </mxCell>
        <mxCell id="ls6p_8hV20rsziK436bs-57" value="offset_100 -&amp;gt; message" style="rounded=0;whiteSpace=wrap;html=1;" vertex="1" parent="1">
          <mxGeometry x="480" y="593.5" width="100" height="27.5" as="geometry" />
        </mxCell>
      </root>
    </mxGraphModel>
  </diagram>
</mxfile>
